<svg xmlns="http://www.w3.org/2000/svg" version="1.0" viewBox="0 0 375 374.999991">
  <defs>
    <style>
      .logotype { fill: #4a4a55; }
      @media (prefers-color-scheme: dark) {
        .logotype { fill: #cacad0; }
      }
    </style>
  </defs>
  <path fill="#ff3e00" d="M266.757812 64.160156c-20.265624-28.992187-60.289062-37.585937-89.226562-19.15625l-50.824219 32.382813c-3.433593 2.15625-6.605469 4.648437-9.519531 7.46875-2.914062 2.820312-5.503906 5.910156-7.773438 9.273437-2.265624 3.359375-4.164062 6.917969-5.6875 10.675782-1.527343 3.757812-2.648437 7.628906-3.363281 11.621093-.601562 3.335938-.925781 6.703125-.96875 10.09375-.042969 3.390625.191407 6.761719.707031 10.113281.515626 3.351563 1.300782 6.640626 2.363282 9.863282 1.058594 3.222656 2.378906 6.332031 3.953125 9.335937-4.394531 6.667969-7.300781 13.925781-8.722657 21.785157-.722656 4.070312-1.035156 8.171874-.941406 12.304687.097656 4.132813.597656 8.21875 1.511719 12.25.910156 4.035156 2.210937 7.9375 3.902344 11.710937 1.691406 3.773438 3.738281 7.339844 6.144531 10.707032 20.269531 28.996094 60.292969 37.585937 89.226562 19.15625l50.824219-32.382813c3.433594-2.15625 6.609375-4.648437 9.519531-7.46875 2.914063-2.820312 5.507813-5.910156 7.773438-9.269531 2.269531-3.363281 4.164062-6.921875 5.691406-10.679688 1.523438-3.757812 2.644532-7.628906 3.359375-11.621093.601563-3.335938.925781-6.703125.96875-10.09375.042969-3.390625-.191406-6.761719-.707031-10.113281-.511719-3.355469-1.300781-6.640626-2.359375-9.863282-1.058594-3.222656-2.378906-6.335937-3.953125-9.339844 4.394531-6.664062 7.300781-13.925781 8.71875-21.78125.722656-4.070312 1.039062-8.171874.945312-12.304687-.097656-4.132813-.601562-8.21875-1.511718-12.25-.910156-4.035156-2.214844-7.9375-3.90625-11.710937-1.691406-3.773438-3.738282-7.339844-6.140625-10.707032"/>
  <path fill="#fff" d="M172.566406 227.316406c-1.988281.515625-4.003906.878906-6.046875 1.089844-2.042969.207031-4.09375.261719-6.144531.15625-2.050781-.101562-4.082031-.359375-6.09375-.773438-2.011719-.414062-3.980469-.976562-5.90625-1.691406-1.925781-.710937-3.789062-1.566406-5.582031-2.566406-1.796875-.996094-3.503907-2.125-5.128907-3.382812-1.621093-1.257813-3.140624-2.632813-4.554687-4.121094-1.414063-1.492188-2.703125-3.078125-3.875-4.765625-1.445313-2.023438-2.679687-4.167969-3.695313-6.4375-1.015624-2.269531-1.800781-4.617188-2.347656-7.042969-.546875-2.425781-.851562-4.882812-.910156-7.367188-.054688-2.484374.132812-4.953124.566406-7.402343.296875-1.609375.703125-3.191407 1.214844-4.742188l.957031-2.917969 2.605469 1.910157c6.058594 4.449219 12.683594 7.761719 19.882812 9.929687l1.886719.574219-.171875 1.882813c-.117187 1.34375 0 2.660156.355469 3.960937.351563 1.296875.914063 2.496094 1.691406 3.59375.355469.507813.742188.988281 1.167969 1.4375.425781.449219.882812.863281 1.371094 1.242187.488281.378907 1.003906.71875 1.542968 1.019532.542969.300781 1.101563.558594 1.679688.773437.582031.214844 1.175781.382813 1.78125.507813.605469.125 1.214844.203125 1.835938.234375.617187.03125 1.234374.015625 1.847656-.046875.617187-.0625 1.222656-.171875 1.820312-.328125 1.113282-.296875 2.152344-.753907 3.121094-1.371094l50.828125-32.375c1.257813-.792969 2.300781-1.804687 3.132813-3.035156.832031-1.230469 1.378906-2.578125 1.640624-4.039063.265626-1.488281.230469-2.972656-.105468-4.449218-.332032-1.476563-.9375-2.832032-1.816406-4.0625-.710938-1.023438-1.554688-1.917969-2.539063-2.679688s-2.058594-1.359375-3.226563-1.792969c-1.167968-.433593-2.371093-.683593-3.613281-.746093-1.246093-.0625-2.46875.0625-3.671875.375-1.109375.296874-2.148437.753906-3.117187 1.371093l-19.398438 12.355469c-3.207031 2.039062-6.644531 3.550781-10.320312 4.53125-1.988281.519531-4.003907.878906-6.046875 1.089844-2.042969.210937-4.089844.261718-6.140625.160156-2.050781-.105469-4.082031-.363281-6.09375-.777344-2.011719-.410156-3.980469-.976562-5.90625-1.6875-1.925781-.714844-3.789063-1.570312-5.582031-2.566406-1.796876-1-3.507813-2.128906-5.128907-3.386719-1.625-1.257812-3.140625-2.632812-4.554687-4.121093-1.414063-1.488282-2.707032-3.078126-3.875-4.765626-1.445313-2.023437-2.679688-4.167968-3.695313-6.4375-1.019531-2.269531-1.800781-4.617187-2.347656-7.042968-.550781-2.425782-.851563-4.878906-.910156-7.367188-.058594-2.484375.132812-4.953125.566406-7.398437.429687-2.402344 1.105469-4.730469 2.023437-6.988281.917969-2.261719 2.058594-4.398438 3.421876-6.421876 1.363281-2.019531 2.921874-3.878906 4.671874-5.574218 1.753907-1.695313 3.660157-3.195313 5.726563-4.492188l50.820313-32.378906c3.210937-2.042969 6.652343-3.554688 10.328124-4.535156 1.988282-.515625 4.003907-.878906 6.046876-1.089844 2.042968-.207031 4.089843-.261719 6.140624-.15625 2.050782.101562 4.085938.359375 6.097657.773438 2.011719.414062 3.980469.976562 5.90625 1.691406 1.925781.710937 3.785156 1.566406 5.582031 2.566406 1.792969.996094 3.503906 2.125 5.125 3.382812 1.625 1.257813 3.144531 2.632813 4.554688 4.121094 1.414062 1.492188 2.707031 3.078125 3.878906 4.765625 1.445312 2.023438 2.675781 4.167969 3.691406 6.4375 1.019531 2.269531 1.800781 4.617188 2.351562 7.042969.546876 2.425781.847657 4.882812.90625 7.367188.058594 2.484374-.128906 4.953124-.566406 7.402343-.296875 1.609375-.699218 3.1875-1.214844 4.742188l-.957031 2.917969-2.601562-1.910157c-6.058594-4.449219-12.683594-7.761719-19.882813-9.933593l-1.890625-.570313.175781-1.886719c.113282-1.339844-.003906-2.660156-.359374-3.957031-.351563-1.296875-.914063-2.496094-1.691407-3.597656-.351562-.507813-.742187-.984375-1.167969-1.433594-.425781-.449219-.878906-.863281-1.371093-1.242187-.488281-.378907-1-.71875-1.542969-1.019532-.539062-.300781-1.101562-.558594-1.679688-.773437-.578124-.214844-1.171874-.386719-1.777343-.511719-.605469-.121094-1.21875-.199219-1.835938-.230469-.617187-.03125-1.234375-.015625-1.851562.046875-.613281.0625-1.222657.171875-1.820313.324219-1.109375.296875-2.152344.753906-3.121094 1.371094l-50.824218 32.378906c-1.257813.792969-2.304688 1.800781-3.132813 3.03125-.832031 1.234375-1.378906 2.578125-1.640625 4.039063-.265625 1.492187-.230468 2.976562.101563 4.453124.332031 1.476563.941406 2.832032 1.820312 4.0625.707031 1.023438 1.554688 1.914063 2.539063 2.679688.980468.761719 2.058594 1.359375 3.222656 1.792969 1.167969.433593 2.375.679687 3.617188.746093 1.242187.0625 2.464843-.0625 3.671874-.375 1.109376-.296874 2.152344-.753906 3.121094-1.371093l19.390625-12.355469c3.207031-2.039062 6.648438-3.550781 10.320313-4.535156 1.988281-.515625 4.003906-.878906 6.046875-1.085938 2.042969-.210937 4.089843-.261718 6.144531-.160156 2.050781.105469 4.082031.363281 6.09375.773438 2.011719.414062 3.980469.976562 5.90625 1.691406 1.925781.714844 3.785156 1.570312 5.582031 2.566406 1.796875 1 3.503907 2.125 5.128907 3.382812 1.621093 1.261719 3.140624 2.632813 4.554687 4.125 1.410156 1.488282 2.703125 3.078126 3.875 4.765626 1.445313 2.023437 2.675781 4.167968 3.695313 6.4375 1.015624 2.269531 1.800781 4.617187 2.347656 7.042968.546875 2.425782.851562 4.878906.90625 7.367188.058594 2.484375-.128906 4.949218-.566406 7.398437-.429688 2.402344-1.105469 4.730469-2.019532 6.988281-.917968 2.261719-2.058594 4.398438-3.421875 6.421876-1.363281 2.019531-2.921875 3.878906-4.675781 5.574218-1.75 1.699219-3.660156 3.195313-5.722656 4.492188l-50.824219 32.378906c-3.207031 2.042969-6.652344 3.554688-10.324219 4.535156"/>
  <path class="logotype" d="M69.845051 288.729003h11.640625c3.5 0 6.570312.609375 9.21875 1.828125 2.644531 1.21875 4.71875 2.871094 6.21875 4.953125 1.5 2.074219 2.601562 4.328125 3.3125 6.765625.71875 2.4375 1.078125 5.042969 1.078125 7.8125 0 2.636719-.339844 5.148438-1.015625 7.53125-.667969 2.375-1.726562 4.632812-3.171875 6.765625-1.4375 2.136719-3.523437 3.84375-6.25 5.125-2.71875 1.28125-5.929687 1.921875-9.625 1.921875h-11.40625Zm12.078125 37.765625c2.519531 0 4.722656-.476562 6.609375-1.4375 1.894531-.957031 3.347656-2.257812 4.359375-3.90625 1.019531-1.644531 1.765625-3.378906 2.234375-5.203125.46875-1.832031.703125-3.785156.703125-5.859375 0-2.925781-.429688-5.585938-1.28125-7.984375-.855469-2.40625-2.320312-4.421875-4.390625-6.046875-2.074219-1.625-4.59375-2.4375-7.5625-2.4375h-7.453125v32.875Zm45.802476 5.671875c-3.210937 0-6.027344-.640625-8.453125-1.921875-2.417969-1.28125-4.308594-3.007812-5.671875-5.1875-1.367187-2.175781-2.375-4.515625-3.03125-7.015625-.648437-2.5-.96875-5.148437-.96875-7.953125 0-2.8125.320313-5.46875.96875-7.96875.65625-2.5 1.664063-4.835938 3.03125-7.015625 1.363281-2.175781 3.253906-3.90625 5.671875-5.1875 2.425781-1.28125 5.242188-1.921875 8.453125-1.921875 2.601563 0 4.953125.429688 7.046875 1.28125 2.09375.855469 3.820312 1.996094 5.1875 3.421875 1.363281 1.429687 2.5 3.117187 3.40625 5.0625.914062 1.949219 1.566406 3.945313 1.953125 5.984375.382813 2.03125.578125 4.148438.578125 6.34375 0 2.1875-.195312 4.304688-.578125 6.34375-.386719 2.03125-1.039063 4.027344-1.953125 5.984375-.90625 1.949219-2.042969 3.636719-3.40625 5.0625-1.367188 1.417969-3.09375 2.554687-5.1875 3.40625-2.09375.851563-4.445312 1.28125-7.046875 1.28125Zm-5.890625-6.46875c1.6875.980469 3.648438 1.46875 5.890625 1.46875 2.238281 0 4.210937-.515625 5.921875-1.546875 1.707031-1.039062 3.023438-2.414062 3.953125-4.125.9375-1.707031 1.628906-3.523438 2.078125-5.453125.445312-1.9375.671875-3.921875.671875-5.953125 0-3.007812-.375-5.742188-1.125-8.203125-.75-2.46875-2.117187-4.570313-4.09375-6.3125-1.96875-1.75-4.4375-2.625-7.40625-2.625-2.242187 0-4.203125.523437-5.890625 1.5625-1.6875 1.03125-3 2.414063-3.9375 4.140625-.929688 1.730469-1.625 3.546875-2.09375 5.453125s-.703125 3.902344-.703125 5.984375c0 2.1875.222656 4.261719.671875 6.21875.445312 1.949219 1.144531 3.757812 2.09375 5.421875.957031 1.667969 2.28125 2.992187 3.96875 3.96875Zm49.995912 6.46875c-3.09375 0-5.824219-.632813-8.1875-1.890625-2.355469-1.257812-4.203125-2.96875-5.546875-5.125s-2.34375-4.492188-3-7.015625c-.648437-2.519531-.96875-5.203125-.96875-8.046875 0-2.8125.332031-5.488281 1-8.03125.675781-2.539062 1.695313-4.878906 3.0625-7.015625 1.363281-2.132813 3.210937-3.84375 5.546875-5.125 2.34375-1.28125 5.039062-1.921875 8.09375-1.921875 6.664062 0 11.257812 2.5625 13.78125 7.6875l-4.765625 2.4375c-1.136719-1.707031-2.386719-2.992188-3.75-3.859375-1.355469-.875-3.109375-1.3125-5.265625-1.3125-2.898438 0-5.304688.917969-7.21875 2.75-1.90625 1.824219-3.214844 3.964844-3.921875 6.421875-.710937 2.460938-1.0625 5.117188-1.0625 7.96875 0 4.679688 1.035156 8.695312 3.109375 12.046875 2.070312 3.355469 5.097656 5.03125 9.078125 5.03125 3.988281 0 7.082031-1.8125 9.28125-5.4375l4.875 1.828125c-1.179687 2.605469-2.949219 4.695312-5.3125 6.265625-2.355469 1.5625-5.296875 2.34375-8.828125 2.34375Zm39.886354 0c-3.136719 0-5.890625-.621094-8.265625-1.859375s-4.265625-2.914062-5.671875-5.03125c-1.40625-2.113281-2.460937-4.453125-3.15625-7.015625-.6875-2.5625-1.03125-5.285156-1.03125-8.171875 0-2.851562.363281-5.566406 1.09375-8.140625.738281-2.582031 1.816406-4.921875 3.234375-7.015625 1.425781-2.101562 3.328125-3.785156 5.703125-5.046875 2.382813-1.257813 5.082031-1.890625 8.09375-1.890625 3.613281 0 6.46875.671875 8.5625 2.015625 2.101563 1.34375 3.863281 3.179687 5.28125 5.5l-4.75 2.734375c-1.148437-1.664062-2.414063-2.957031-3.796875-3.875-1.375-.914062-3.140625-1.375-5.296875-1.375-1.835937 0-3.484375.351562-4.953125 1.046875-1.460938.6875-2.65625 1.59375-3.59375 2.71875-.929688 1.117187-1.710938 2.429687-2.34375 3.9375-.625 1.5-1.074219 3.03125-1.34375 4.59375-.261719 1.5625-.390625 3.164063-.390625 4.796875 0 4.792969 1.054687 8.828125 3.171875 12.109375 2.113281 3.273437 5.265625 4.90625 9.453125 4.90625 2.882813 0 5.203125-.90625 6.953125-2.71875s2.625-4.179687 2.625-7.109375v-1.703125h-7.75v-4.875h13.296875v5.125c0 5.15625-1.417969 9.171875-4.25 12.046875-2.824219 2.867188-6.449219 4.296875-10.875 4.296875Zm25.684071-.734375v-42.703125h25.375v5h-20.078125v13.125h13.234375v5h-13.234375v14.515625h21.421875v5.0625Zm67.755419 0h-5.109375l-19.21875-30.5c-.742188-1.175781-1.3125-2.171875-1.71875-2.984375.082031 1.21875.125 2.214844.125 2.984375v30.5h-5.296875v-42.703125h5.359375l18.90625 30.375c.65625 1.0625 1.25 2.121094 1.78125 3.171875-.085938-1.457031-.125-2.492188-.125-3.109375v-30.4375h5.296875Zm0 0"/>
</svg>
